<svg xmlns="http://www.w3.org/2000/svg" xmlns:v="https://svgstorm.com"
viewBox = "0 0 200 200"
width="200"
height="200">
<g fill="None" fill-opacity="0.0" stroke="#000000" stroke-opacity="0.00" stroke-width="0.3"><path d="
M 0.00 200.00 
L 200.00 200.00
L 200.00 0.00
L 0.00 0.00
L 0.00 200.00
M 106.00 19.00 
C 112.44 31.60 114.61 45.52 118.78 59.22 C 122.94 72.93 126.23 83.68 136.00 95.00
C 138.11 97.45 140.64 100.64 143.00 103.00
C 152.93 112.93 162.82 123.37 172.00 134.00
C 179.78 143.01 170.75 146.91 162.00 145.00
C 153.01 143.04 143.58 140.03 135.00 138.00
C 128.72 136.51 122.28 135.41 116.00 134.00
C 113.99 133.55 112.05 133.46 110.00 133.00
C 83.23 126.97 58.37 146.86 32.00 146.00
C 20.46 145.62 26.30 135.70 31.00 131.00
C 35.17 126.83 38.83 122.17 43.00 118.00
C 45.33 115.67 47.51 113.12 50.00 111.00
C 50.23 110.84 50.00 110.00 50.00 110.00
C 51.45 107.03 54.83 105.17 57.00 103.00
C 65.88 92.61 74.30 84.70 78.00 72.00
C 80.69 62.75 86.29 45.69 87.98 36.98 C 89.66 28.26 98.17 3.68 106.00 19.00 Z"/>
</g>
<g fill="None" fill-opacity="0.0" stroke="#E3A087" stroke-opacity="0.94" stroke-width="0.3"><path d="
M 78.00 72.00 
C 80.45 72.44 82.29 75.20 85.00 76.00
C 85.13 75.73 85.89 75.35 86.00 75.00
C 87.04 71.67 88.17 68.94 89.00 66.00
C 90.18 61.85 90.63 62.17 89.00 57.00
C 95.84 47.10 97.90 34.16 99.00 22.00
C 100.00 22.00 101.00 22.00 102.00 22.00
C 103.35 20.78 104.12 19.13 106.00 19.00
C 98.17 3.68 89.66 28.26 87.98 36.98 C 86.29 45.69 80.69 62.75 78.00 72.00 Z"/>
</g>
<g fill="None" fill-opacity="0.0" stroke="#C48360" stroke-opacity="0.90" stroke-width="0.3"><path d="
M 102.00 22.00 
C 98.47 29.07 106.54 33.91 104.00 40.00
C 111.10 42.91 108.50 51.93 111.12 56.90 C 113.74 61.87 114.52 68.25 116.00 72.00
C 116.75 74.71 119.80 77.64 119.00 81.00
C 124.92 81.95 129.10 93.66 136.00 95.00
C 126.23 83.68 122.94 72.93 118.78 59.22 C 114.61 45.52 112.44 31.60 106.00 19.00
C 104.12 19.13 103.35 20.78 102.00 22.00 Z"/>
</g>
<g fill="None" fill-opacity="0.0" stroke="#E1926A" stroke-opacity="1.00" stroke-width="0.3"><path d="
M 89.00 66.00 
C 88.67 64.38 91.56 69.09 93.00 68.00
C 93.92 74.51 98.65 82.78 96.00 87.00
C 98.73 88.36 103.52 93.09 102.00 86.00
C 106.51 86.27 105.91 90.77 109.00 91.00
C 112.27 90.84 114.55 89.67 115.00 86.00
C 112.72 85.89 111.69 90.46 110.00 88.00
C 112.02 85.63 109.68 84.04 108.00 82.00
C 112.30 84.49 112.43 78.54 117.00 77.00
C 114.85 74.88 113.84 74.12 112.00 73.00
C 112.53 71.40 114.75 72.28 116.00 72.00
C 114.52 68.25 113.74 61.87 111.12 56.90 C 108.50 51.93 111.10 42.91 104.00 40.00
C 106.54 33.91 98.47 29.07 102.00 22.00
C 101.00 22.00 100.00 22.00 99.00 22.00
C 97.90 34.16 95.84 47.10 89.00 57.00
C 90.63 62.17 90.18 61.85 89.00 66.00 Z"/>
</g>
<g fill="None" fill-opacity="0.0" stroke="#E08161" stroke-opacity="1.00" stroke-width="0.3"><path d="
M 89.00 66.00 
C 88.17 68.94 87.04 71.67 86.00 75.00
C 90.20 75.44 86.57 80.18 90.00 81.00
C 86.82 82.40 87.18 83.23 91.00 83.00
C 90.61 86.39 86.60 82.22 87.00 86.00
C 90.58 85.60 87.82 89.72 86.00 90.00
C 86.31 90.12 87.20 93.52 89.00 91.00
C 87.36 93.50 85.80 93.79 87.00 98.00
C 85.03 99.09 79.64 99.64 85.00 100.00
C 84.92 101.26 82.94 100.56 83.00 102.00
C 87.98 100.13 91.70 98.88 93.00 93.00
C 94.25 93.30 94.71 94.83 96.00 95.00
C 96.30 92.96 95.71 88.72 96.00 87.00
C 98.65 82.78 93.92 74.51 93.00 68.00
C 91.56 69.09 88.67 64.38 89.00 66.00 Z"/>
</g>
<g fill="None" fill-opacity="0.0" stroke="#D18386" stroke-opacity="0.93" stroke-width="0.3"><path d="
M 57.00 103.00 
C 54.84 105.53 52.72 108.10 50.00 110.00
C 50.00 110.00 50.23 110.84 50.00 111.00
C 54.25 107.36 58.21 103.31 64.00 104.00
C 63.07 99.63 72.31 98.94 76.08 94.08 C 79.85 89.22 81.95 81.45 85.00 76.00
C 82.29 75.20 80.45 72.44 78.00 72.00
C 74.30 84.70 65.88 92.61 57.00 103.00 Z"/>
</g>
<g fill="None" fill-opacity="0.0" stroke="#E6995A" stroke-opacity="0.99" stroke-width="0.3"><path d="
M 109.00 91.00 
C 110.88 93.43 110.53 98.48 114.00 101.00
C 112.63 103.62 112.88 105.31 112.00 108.00
C 115.22 107.82 115.15 107.69 114.00 112.00
C 119.52 113.12 115.46 107.49 121.00 108.00
C 117.78 109.78 119.50 117.13 115.00 113.00
C 117.37 116.81 116.58 121.80 121.00 120.00
C 117.17 123.19 119.70 123.60 121.00 127.00
C 119.28 127.88 117.80 127.75 116.00 127.00
C 117.52 128.48 118.75 132.99 116.00 134.00
C 122.28 135.41 128.72 136.51 135.00 138.00
C 132.84 136.77 131.13 135.12 131.00 133.00
C 133.01 131.82 136.81 133.19 138.00 130.00
C 135.88 129.92 133.98 126.14 131.00 128.00
C 132.03 124.04 129.76 124.19 129.00 122.00
C 132.71 120.62 131.19 125.45 134.00 126.00
C 136.45 121.96 131.19 121.29 129.00 120.00
C 133.39 118.97 136.26 113.71 142.00 113.00
C 139.93 111.29 138.71 106.12 135.00 104.00
C 140.41 103.23 140.26 106.75 145.00 107.00
C 141.02 109.08 147.46 109.22 148.00 112.00
C 148.85 107.58 143.39 106.67 143.00 103.00
C 140.64 100.64 138.11 97.45 136.00 95.00
C 129.10 93.66 124.92 81.95 119.00 81.00
C 119.80 77.64 116.75 74.71 116.00 72.00
C 114.75 72.28 112.53 71.40 112.00 73.00
C 113.84 74.12 114.85 74.88 117.00 77.00
C 112.43 78.54 112.30 84.49 108.00 82.00
C 109.68 84.04 112.02 85.63 110.00 88.00
C 111.69 90.46 112.72 85.89 115.00 86.00
C 114.55 89.67 112.27 90.84 109.00 91.00 Z"/>
</g>
<g fill="None" fill-opacity="0.0" stroke="#DE7C6F" stroke-opacity="0.99" stroke-width="0.3"><path d="
M 85.00 76.00 
C 81.95 81.45 79.85 89.22 76.08 94.08 C 72.31 98.94 63.07 99.63 64.00 104.00
C 58.21 103.31 54.25 107.36 50.00 111.00
C 47.51 113.12 45.33 115.67 43.00 118.00
C 44.17 118.14 45.98 121.90 46.00 123.00
C 49.33 121.59 51.17 121.41 54.00 120.00
C 59.34 115.00 62.18 108.13 67.92 102.92 C 73.66 97.71 80.31 94.97 82.00 89.00
C 83.56 88.59 84.69 89.46 86.00 90.00
C 87.82 89.72 90.58 85.60 87.00 86.00
C 86.60 82.22 90.61 86.39 91.00 83.00
C 87.18 83.23 86.82 82.40 90.00 81.00
C 86.57 80.18 90.20 75.44 86.00 75.00
C 85.89 75.35 85.13 75.73 85.00 76.00 Z"/>
</g>
<g fill="None" fill-opacity="0.0" stroke="#F3884E" stroke-opacity="1.00" stroke-width="0.3"><path d="
M 96.00 87.00 
C 95.71 88.72 96.30 92.96 96.00 95.00
C 95.42 98.93 93.51 98.59 99.00 100.00
C 96.48 104.65 95.37 103.24 93.00 100.00
C 93.34 103.49 93.58 106.78 98.00 104.00
C 97.98 106.87 105.42 111.57 98.00 112.00
C 97.72 114.99 100.65 118.07 103.00 115.00
C 104.29 120.54 109.27 127.23 116.00 127.00
C 117.80 127.75 119.28 127.88 121.00 127.00
C 119.70 123.60 117.17 123.19 121.00 120.00
C 116.58 121.80 117.37 116.81 115.00 113.00
C 119.50 117.13 117.78 109.78 121.00 108.00
C 115.46 107.49 119.52 113.12 114.00 112.00
C 115.15 107.69 115.22 107.82 112.00 108.00
C 112.88 105.31 112.63 103.62 114.00 101.00
C 110.53 98.48 110.88 93.43 109.00 91.00
C 105.91 90.77 106.51 86.27 102.00 86.00
C 103.52 93.09 98.73 88.36 96.00 87.00 Z"/>
</g>
<g fill="None" fill-opacity="0.0" stroke="#E06854" stroke-opacity="1.00" stroke-width="0.3"><path d="
M 54.00 120.00 
C 55.19 119.68 59.41 118.23 62.00 120.00
C 62.08 117.03 63.08 116.54 64.00 114.00
C 65.15 119.21 68.33 113.10 72.00 113.00
C 69.19 107.67 82.97 108.92 80.00 103.00
C 81.16 104.21 83.43 104.27 83.00 102.00
C 82.94 100.56 84.92 101.26 85.00 100.00
C 79.64 99.64 85.03 99.09 87.00 98.00
C 85.80 93.79 87.36 93.50 89.00 91.00
C 87.20 93.52 86.31 90.12 86.00 90.00
C 84.69 89.46 83.56 88.59 82.00 89.00
C 80.31 94.97 73.66 97.71 67.92 102.92 C 62.18 108.13 59.34 115.00 54.00 120.00 Z"/>
</g>
<g fill="None" fill-opacity="0.0" stroke="#F06E41" stroke-opacity="0.99" stroke-width="0.3"><path d="
M 83.00 102.00 
C 83.43 104.27 81.16 104.21 80.00 103.00
C 82.97 108.92 69.19 107.67 72.00 113.00
C 68.33 113.10 65.15 119.21 64.00 114.00
C 63.08 116.54 62.08 117.03 62.00 120.00
C 59.41 118.23 55.19 119.68 54.00 120.00
C 51.17 121.41 49.33 121.59 46.00 123.00
C 45.98 121.90 44.17 118.14 43.00 118.00
C 38.83 122.17 35.17 126.83 31.00 131.00
C 33.26 130.32 35.73 133.18 38.00 131.00
C 39.71 133.88 36.76 134.25 36.00 137.00
C 45.94 128.51 60.89 133.10 72.08 128.08 C 83.27 123.06 100.82 123.21 111.00 130.00
C 111.53 131.28 110.03 131.86 110.00 133.00
C 112.05 133.46 113.99 133.55 116.00 134.00
C 118.75 132.99 117.52 128.48 116.00 127.00
C 109.27 127.23 104.29 120.54 103.00 115.00
C 100.65 118.07 97.72 114.99 98.00 112.00
C 105.42 111.57 97.98 106.87 98.00 104.00
C 93.58 106.78 93.34 103.49 93.00 100.00
C 95.37 103.24 96.48 104.65 99.00 100.00
C 93.51 98.59 95.42 98.93 96.00 95.00
C 94.71 94.83 94.25 93.30 93.00 93.00
C 91.70 98.88 87.98 100.13 83.00 102.00 Z"/>
</g>
<g fill="None" fill-opacity="0.0" stroke="#D57A7C" stroke-opacity="0.13" stroke-width="0.3"><path d="
M 50.00 110.00 
C 52.72 108.10 54.84 105.53 57.00 103.00
C 54.83 105.17 51.45 107.03 50.00 110.00 Z"/>
</g>
<g fill="None" fill-opacity="0.0" stroke="#D9A255" stroke-opacity="0.96" stroke-width="0.3"><path d="
M 135.00 138.00 
C 143.58 140.03 153.01 143.04 162.00 145.00
C 163.50 139.41 174.00 140.75 172.00 134.00
C 162.82 123.37 152.93 112.93 143.00 103.00
C 143.39 106.67 148.85 107.58 148.00 112.00
C 147.46 109.22 141.02 109.08 145.00 107.00
C 140.26 106.75 140.41 103.23 135.00 104.00
C 138.71 106.12 139.93 111.29 142.00 113.00
C 136.26 113.71 133.39 118.97 129.00 120.00
C 131.19 121.29 136.45 121.96 134.00 126.00
C 131.19 125.45 132.71 120.62 129.00 122.00
C 129.76 124.19 132.03 124.04 131.00 128.00
C 133.98 126.14 135.88 129.92 138.00 130.00
C 136.81 133.19 133.01 131.82 131.00 133.00
C 131.13 135.12 132.84 136.77 135.00 138.00 Z"/>
</g>
<g fill="None" fill-opacity="0.0" stroke="#D15223" stroke-opacity="0.94" stroke-width="0.3"><path d="
M 36.00 137.00 
C 34.71 138.72 28.39 143.79 32.00 146.00
C 58.37 146.86 83.23 126.97 110.00 133.00
C 110.03 131.86 111.53 131.28 111.00 130.00
C 100.82 123.21 83.27 123.06 72.08 128.08 C 60.89 133.10 45.94 128.51 36.00 137.00 Z"/>
</g>
<g fill="None" fill-opacity="0.0" stroke="#D5824F" stroke-opacity="0.92" stroke-width="0.3"><path d="
M 32.00 146.00 
C 28.39 143.79 34.71 138.72 36.00 137.00
C 36.76 134.25 39.71 133.88 38.00 131.00
C 35.73 133.18 33.26 130.32 31.00 131.00
C 26.30 135.70 20.46 145.62 32.00 146.00 Z"/>
</g>
<g fill="None" fill-opacity="0.0" stroke="#B58D44" stroke-opacity="0.86" stroke-width="0.3"><path d="
M 162.00 145.00 
C 170.75 146.91 179.78 143.01 172.00 134.00
C 174.00 140.75 163.50 139.41 162.00 145.00 Z"/>
</g>
<g fill="#000000" fill-opacity="0.00" stroke="None">
<path d="
M 0.00 200.00 
L 200.00 200.00
L 200.00 0.00
L 0.00 0.00
L 0.00 200.00
M 106.00 19.00 
C 112.44 31.60 114.61 45.52 118.78 59.22 C 122.94 72.93 126.23 83.68 136.00 95.00
C 138.11 97.45 140.64 100.64 143.00 103.00
C 152.93 112.93 162.82 123.37 172.00 134.00
C 179.78 143.01 170.75 146.91 162.00 145.00
C 153.01 143.04 143.58 140.03 135.00 138.00
C 128.72 136.51 122.28 135.41 116.00 134.00
C 113.99 133.55 112.05 133.46 110.00 133.00
C 83.23 126.97 58.37 146.86 32.00 146.00
C 20.46 145.62 26.30 135.70 31.00 131.00
C 35.17 126.83 38.83 122.17 43.00 118.00
C 45.33 115.67 47.51 113.12 50.00 111.00
C 50.23 110.84 50.00 110.00 50.00 110.00
C 51.45 107.03 54.83 105.17 57.00 103.00
C 65.88 92.61 74.30 84.70 78.00 72.00
C 80.69 62.75 86.29 45.69 87.98 36.98 C 89.66 28.26 98.17 3.68 106.00 19.00 Z"/>
</g>
<g fill="#E3A087" fill-opacity="0.94" stroke="None">
<path d="
M 78.00 72.00 
C 80.45 72.44 82.29 75.20 85.00 76.00
C 85.13 75.73 85.89 75.35 86.00 75.00
C 87.04 71.67 88.17 68.94 89.00 66.00
C 90.18 61.85 90.63 62.17 89.00 57.00
C 95.84 47.10 97.90 34.16 99.00 22.00
C 100.00 22.00 101.00 22.00 102.00 22.00
C 103.35 20.78 104.12 19.13 106.00 19.00
C 98.17 3.68 89.66 28.26 87.98 36.98 C 86.29 45.69 80.69 62.75 78.00 72.00 Z"/>
</g>
<g fill="#C48360" fill-opacity="0.90" stroke="None">
<path d="
M 102.00 22.00 
C 98.47 29.07 106.54 33.91 104.00 40.00
C 111.10 42.91 108.50 51.93 111.12 56.90 C 113.74 61.87 114.52 68.25 116.00 72.00
C 116.75 74.71 119.80 77.64 119.00 81.00
C 124.92 81.95 129.10 93.66 136.00 95.00
C 126.23 83.68 122.94 72.93 118.78 59.22 C 114.61 45.52 112.44 31.60 106.00 19.00
C 104.12 19.13 103.35 20.78 102.00 22.00 Z"/>
</g>
<g fill="#E1926A" fill-opacity="1.00" stroke="None">
<path d="
M 89.00 66.00 
C 88.67 64.38 91.56 69.09 93.00 68.00
C 93.92 74.51 98.65 82.78 96.00 87.00
C 98.73 88.36 103.52 93.09 102.00 86.00
C 106.51 86.27 105.91 90.77 109.00 91.00
C 112.27 90.84 114.55 89.67 115.00 86.00
C 112.72 85.89 111.69 90.46 110.00 88.00
C 112.02 85.63 109.68 84.04 108.00 82.00
C 112.30 84.49 112.43 78.54 117.00 77.00
C 114.85 74.88 113.84 74.12 112.00 73.00
C 112.53 71.40 114.75 72.28 116.00 72.00
C 114.52 68.25 113.74 61.87 111.12 56.90 C 108.50 51.93 111.10 42.91 104.00 40.00
C 106.54 33.91 98.47 29.07 102.00 22.00
C 101.00 22.00 100.00 22.00 99.00 22.00
C 97.90 34.16 95.84 47.10 89.00 57.00
C 90.63 62.17 90.18 61.85 89.00 66.00 Z"/>
</g>
<g fill="#E08161" fill-opacity="1.00" stroke="None">
<path d="
M 89.00 66.00 
C 88.17 68.94 87.04 71.67 86.00 75.00
C 90.20 75.44 86.57 80.18 90.00 81.00
C 86.82 82.40 87.18 83.23 91.00 83.00
C 90.61 86.39 86.60 82.22 87.00 86.00
C 90.58 85.60 87.82 89.72 86.00 90.00
C 86.31 90.12 87.20 93.52 89.00 91.00
C 87.36 93.50 85.80 93.79 87.00 98.00
C 85.03 99.09 79.64 99.64 85.00 100.00
C 84.92 101.26 82.94 100.56 83.00 102.00
C 87.98 100.13 91.70 98.88 93.00 93.00
C 94.25 93.30 94.71 94.83 96.00 95.00
C 96.30 92.96 95.71 88.72 96.00 87.00
C 98.65 82.78 93.92 74.51 93.00 68.00
C 91.56 69.09 88.67 64.38 89.00 66.00 Z"/>
</g>
<g fill="#D18386" fill-opacity="0.93" stroke="None">
<path d="
M 57.00 103.00 
C 54.84 105.53 52.72 108.10 50.00 110.00
C 50.00 110.00 50.23 110.84 50.00 111.00
C 54.25 107.36 58.21 103.31 64.00 104.00
C 63.07 99.63 72.31 98.94 76.08 94.08 C 79.85 89.22 81.95 81.45 85.00 76.00
C 82.29 75.20 80.45 72.44 78.00 72.00
C 74.30 84.70 65.88 92.61 57.00 103.00 Z"/>
</g>
<g fill="#E6995A" fill-opacity="0.99" stroke="None">
<path d="
M 109.00 91.00 
C 110.88 93.43 110.53 98.48 114.00 101.00
C 112.63 103.62 112.88 105.31 112.00 108.00
C 115.22 107.82 115.15 107.69 114.00 112.00
C 119.52 113.12 115.46 107.49 121.00 108.00
C 117.78 109.78 119.50 117.13 115.00 113.00
C 117.37 116.81 116.58 121.80 121.00 120.00
C 117.17 123.19 119.70 123.60 121.00 127.00
C 119.28 127.88 117.80 127.75 116.00 127.00
C 117.52 128.48 118.75 132.99 116.00 134.00
C 122.28 135.41 128.72 136.51 135.00 138.00
C 132.84 136.77 131.13 135.12 131.00 133.00
C 133.01 131.82 136.81 133.19 138.00 130.00
C 135.88 129.92 133.98 126.14 131.00 128.00
C 132.03 124.04 129.76 124.19 129.00 122.00
C 132.71 120.62 131.19 125.45 134.00 126.00
C 136.45 121.96 131.19 121.29 129.00 120.00
C 133.39 118.97 136.26 113.71 142.00 113.00
C 139.93 111.29 138.71 106.12 135.00 104.00
C 140.41 103.23 140.26 106.75 145.00 107.00
C 141.02 109.08 147.46 109.22 148.00 112.00
C 148.85 107.58 143.39 106.67 143.00 103.00
C 140.64 100.64 138.11 97.45 136.00 95.00
C 129.10 93.66 124.92 81.95 119.00 81.00
C 119.80 77.64 116.75 74.71 116.00 72.00
C 114.75 72.28 112.53 71.40 112.00 73.00
C 113.84 74.12 114.85 74.88 117.00 77.00
C 112.43 78.54 112.30 84.49 108.00 82.00
C 109.68 84.04 112.02 85.63 110.00 88.00
C 111.69 90.46 112.72 85.89 115.00 86.00
C 114.55 89.67 112.27 90.84 109.00 91.00 Z"/>
</g>
<g fill="#DE7C6F" fill-opacity="0.99" stroke="None">
<path d="
M 85.00 76.00 
C 81.95 81.45 79.85 89.22 76.08 94.08 C 72.31 98.94 63.07 99.63 64.00 104.00
C 58.21 103.31 54.25 107.36 50.00 111.00
C 47.51 113.12 45.33 115.67 43.00 118.00
C 44.17 118.14 45.98 121.90 46.00 123.00
C 49.33 121.59 51.17 121.41 54.00 120.00
C 59.34 115.00 62.18 108.13 67.92 102.92 C 73.66 97.71 80.31 94.97 82.00 89.00
C 83.56 88.59 84.69 89.46 86.00 90.00
C 87.82 89.72 90.58 85.60 87.00 86.00
C 86.60 82.22 90.61 86.39 91.00 83.00
C 87.18 83.23 86.82 82.40 90.00 81.00
C 86.57 80.18 90.20 75.44 86.00 75.00
C 85.89 75.35 85.13 75.73 85.00 76.00 Z"/>
</g>
<g fill="#F3884E" fill-opacity="1.00" stroke="None">
<path d="
M 96.00 87.00 
C 95.71 88.72 96.30 92.96 96.00 95.00
C 95.42 98.93 93.51 98.59 99.00 100.00
C 96.48 104.65 95.37 103.24 93.00 100.00
C 93.34 103.49 93.58 106.78 98.00 104.00
C 97.98 106.87 105.42 111.57 98.00 112.00
C 97.72 114.99 100.65 118.07 103.00 115.00
C 104.29 120.54 109.27 127.23 116.00 127.00
C 117.80 127.75 119.28 127.88 121.00 127.00
C 119.70 123.60 117.17 123.19 121.00 120.00
C 116.58 121.80 117.37 116.81 115.00 113.00
C 119.50 117.13 117.78 109.78 121.00 108.00
C 115.46 107.49 119.52 113.12 114.00 112.00
C 115.15 107.69 115.22 107.82 112.00 108.00
C 112.88 105.31 112.63 103.62 114.00 101.00
C 110.53 98.48 110.88 93.43 109.00 91.00
C 105.91 90.77 106.51 86.27 102.00 86.00
C 103.52 93.09 98.73 88.36 96.00 87.00 Z"/>
</g>
<g fill="#E06854" fill-opacity="1.00" stroke="None">
<path d="
M 54.00 120.00 
C 55.19 119.68 59.41 118.23 62.00 120.00
C 62.08 117.03 63.08 116.54 64.00 114.00
C 65.15 119.21 68.33 113.10 72.00 113.00
C 69.19 107.67 82.97 108.92 80.00 103.00
C 81.16 104.21 83.43 104.27 83.00 102.00
C 82.94 100.56 84.92 101.26 85.00 100.00
C 79.64 99.64 85.03 99.09 87.00 98.00
C 85.80 93.79 87.36 93.50 89.00 91.00
C 87.20 93.52 86.31 90.12 86.00 90.00
C 84.69 89.46 83.56 88.59 82.00 89.00
C 80.31 94.97 73.66 97.71 67.92 102.92 C 62.18 108.13 59.34 115.00 54.00 120.00 Z"/>
</g>
<g fill="#F06E41" fill-opacity="0.99" stroke="None">
<path d="
M 83.00 102.00 
C 83.43 104.27 81.16 104.21 80.00 103.00
C 82.97 108.92 69.19 107.67 72.00 113.00
C 68.33 113.10 65.15 119.21 64.00 114.00
C 63.08 116.54 62.08 117.03 62.00 120.00
C 59.41 118.23 55.19 119.68 54.00 120.00
C 51.17 121.41 49.33 121.59 46.00 123.00
C 45.98 121.90 44.17 118.14 43.00 118.00
C 38.83 122.17 35.17 126.83 31.00 131.00
C 33.26 130.32 35.73 133.18 38.00 131.00
C 39.71 133.88 36.76 134.25 36.00 137.00
C 45.94 128.51 60.89 133.10 72.08 128.08 C 83.27 123.06 100.82 123.21 111.00 130.00
C 111.53 131.28 110.03 131.86 110.00 133.00
C 112.05 133.46 113.99 133.55 116.00 134.00
C 118.75 132.99 117.52 128.48 116.00 127.00
C 109.27 127.23 104.29 120.54 103.00 115.00
C 100.65 118.07 97.72 114.99 98.00 112.00
C 105.42 111.57 97.98 106.87 98.00 104.00
C 93.58 106.78 93.34 103.49 93.00 100.00
C 95.37 103.24 96.48 104.65 99.00 100.00
C 93.51 98.59 95.42 98.93 96.00 95.00
C 94.71 94.83 94.25 93.30 93.00 93.00
C 91.70 98.88 87.98 100.13 83.00 102.00 Z"/>
</g>
<g fill="#D57A7C" fill-opacity="0.13" stroke="None">
<path d="
M 50.00 110.00 
C 52.72 108.10 54.84 105.53 57.00 103.00
C 54.83 105.17 51.45 107.03 50.00 110.00 Z"/>
</g>
<g fill="#D9A255" fill-opacity="0.96" stroke="None">
<path d="
M 135.00 138.00 
C 143.58 140.03 153.01 143.04 162.00 145.00
C 163.50 139.41 174.00 140.75 172.00 134.00
C 162.82 123.37 152.93 112.93 143.00 103.00
C 143.39 106.67 148.85 107.58 148.00 112.00
C 147.46 109.22 141.02 109.08 145.00 107.00
C 140.26 106.75 140.41 103.23 135.00 104.00
C 138.71 106.12 139.93 111.29 142.00 113.00
C 136.26 113.71 133.39 118.97 129.00 120.00
C 131.19 121.29 136.45 121.96 134.00 126.00
C 131.19 125.45 132.71 120.62 129.00 122.00
C 129.76 124.19 132.03 124.04 131.00 128.00
C 133.98 126.14 135.88 129.92 138.00 130.00
C 136.81 133.19 133.01 131.82 131.00 133.00
C 131.13 135.12 132.84 136.77 135.00 138.00 Z"/>
</g>
<g fill="#D15223" fill-opacity="0.94" stroke="None">
<path d="
M 36.00 137.00 
C 34.71 138.72 28.39 143.79 32.00 146.00
C 58.37 146.86 83.23 126.97 110.00 133.00
C 110.03 131.86 111.53 131.28 111.00 130.00
C 100.82 123.21 83.27 123.06 72.08 128.08 C 60.89 133.10 45.94 128.51 36.00 137.00 Z"/>
</g>
<g fill="#D5824F" fill-opacity="0.92" stroke="None">
<path d="
M 32.00 146.00 
C 28.39 143.79 34.71 138.72 36.00 137.00
C 36.76 134.25 39.71 133.88 38.00 131.00
C 35.73 133.18 33.26 130.32 31.00 131.00
C 26.30 135.70 20.46 145.62 32.00 146.00 Z"/>
</g>
<g fill="#B58D44" fill-opacity="0.86" stroke="None">
<path d="
M 162.00 145.00 
C 170.75 146.91 179.78 143.01 172.00 134.00
C 174.00 140.75 163.50 139.41 162.00 145.00 Z"/>
</g>
</svg>